<svg width="57" height="56" viewBox="0 0 57 56" fill="none" xmlns="http://www.w3.org/2000/svg">
<rect width="56" height="56" transform="translate(0.5)" fill="white"/>
<g clip-path="url(#clip0_2626_1220)">
<path d="M28.5001 43.4C37.0053 43.4 43.9001 36.5052 43.9001 28C43.9001 19.4948 37.0053 12.6 28.5001 12.6C19.9949 12.6 13.1001 19.4948 13.1001 28C13.1001 36.5052 19.9949 43.4 28.5001 43.4Z" fill="#2CA01C"/>
<path d="M17.3779 28C17.3779 29.5883 18.0089 31.1116 19.132 32.2348C20.2552 33.3579 21.7785 33.9889 23.3668 33.9889H24.2224V31.7644H23.3668C22.3684 31.7644 21.4109 31.3678 20.705 30.6618C19.999 29.9559 19.6024 28.9984 19.6024 28C19.6024 27.0016 19.999 26.0441 20.705 25.3381C21.4109 24.6321 22.3684 24.2355 23.3668 24.2355H25.4202V35.8711C25.4202 36.1632 25.4777 36.4525 25.5895 36.7223C25.7013 36.9922 25.8651 37.2374 26.0717 37.444C26.2782 37.6506 26.5235 37.8144 26.7933 37.9262C27.0632 38.038 27.3525 38.0955 27.6446 38.0955V22.0111H23.3668C21.7785 22.0111 20.2552 22.6421 19.132 23.7652C18.0089 24.8883 17.3779 26.4116 17.3779 28ZM33.6335 22.0111H32.7779V24.2355H33.6335C34.6319 24.2355 35.5894 24.6321 36.2953 25.3381C37.0013 26.0441 37.3979 27.0016 37.3979 28C37.3979 28.9984 37.0013 29.9559 36.2953 30.6618C35.5894 31.3678 34.6319 31.7644 33.6335 31.7644H31.5802V20.1289C31.5802 19.5389 31.3458 18.9731 30.9286 18.5559C30.5115 18.1388 29.9457 17.9044 29.3557 17.9044V33.9889H33.6335C34.42 33.9889 35.1987 33.834 35.9253 33.533C36.6519 33.232 37.3121 32.7909 37.8683 32.2348C38.4244 31.6786 38.8655 31.0184 39.1665 30.2918C39.4675 29.5652 39.6224 28.7864 39.6224 28C39.6224 27.2135 39.4675 26.4347 39.1665 25.7081C38.8655 24.9815 38.4244 24.3213 37.8683 23.7652C37.3121 23.2091 36.6519 22.7679 35.9253 22.467C35.1987 22.166 34.42 22.0111 33.6335 22.0111Z" fill="white"/>
</g>
<defs>
<clipPath id="clip0_2626_1220">
<rect width="30.8" height="30.8" fill="white" transform="translate(13.1001 12.6)"/>
</clipPath>
</defs>
</svg>
