<svg width="57" height="56" viewBox="0 0 57 56" fill="none" xmlns="http://www.w3.org/2000/svg">
<rect width="56" height="56" transform="translate(0.5)" fill="white"/>
<g clip-path="url(#clip0_2626_1240)">
<path d="M33.9709 17.637V38.0537C33.9709 40.3382 35.5471 41.6111 37.2191 41.6111C38.7658 41.6111 40.4672 40.5284 40.4672 38.0537V17.7917C40.4672 15.6974 38.9204 14.3889 37.2191 14.3889C35.5177 14.3889 33.9709 15.832 33.9709 17.637Z" fill="#F9AB00"/>
<path d="M25.4639 28.0001V38.0537C25.4639 40.3382 27.04 41.6112 28.712 41.6112C30.2587 41.6112 31.9601 40.5285 31.9601 38.0537V28.1547C31.9601 26.0605 30.4134 24.752 28.712 24.752C27.0106 24.752 25.4639 26.195 25.4639 28.0001Z" fill="#E37400"/>
<path d="M20.2051 41.6111C21.999 41.6111 23.4532 40.1569 23.4532 38.363C23.4532 36.5691 21.999 35.1149 20.2051 35.1149C18.4113 35.1149 16.957 36.5691 16.957 38.363C16.957 40.1569 18.4113 41.6111 20.2051 41.6111Z" fill="#E37400"/>
</g>
<defs>
<clipPath id="clip0_2626_1240">
<rect width="23.7576" height="28" fill="white" transform="translate(16.8333 14)"/>
</clipPath>
</defs>
</svg>
