<svg width="57" height="56" viewBox="0 0 57 56" fill="none" xmlns="http://www.w3.org/2000/svg">
<rect width="56" height="56" transform="translate(0.5)" fill="white"/>
<g clip-path="url(#clip0_2626_1239)">
<path d="M31.9999 28.0061C32.0004 29.0157 31.8182 30.0171 31.4623 30.9619C30.5172 31.3178 29.5156 31.5002 28.5057 31.5003H28.4939C27.4539 31.499 26.4575 31.3089 25.5381 30.9623C25.182 30.0174 24.9997 29.0159 25 28.0061V27.9939C24.9995 26.9845 25.1814 25.9833 25.537 25.0386C26.4821 24.682 27.4839 24.4995 28.494 24.5H28.5058C29.5158 24.4995 30.5175 24.6819 31.4624 25.0385C31.8184 25.9831 32.0005 26.9843 32 27.9938V28.006L31.9999 28.0061ZM42.3055 25.6667H34.1335L39.9116 19.8881C39.4581 19.251 38.9522 18.6529 38.3992 18.0999V18.0995C37.8462 17.5471 37.2482 17.0417 36.6115 16.5884L30.8329 22.367V14.1949C30.0643 14.0656 29.2863 14.0004 28.507 14L28.4926 14C27.6998 14.0004 26.9234 14.0678 26.1667 14.1949V22.367L20.3881 16.5884C19.7513 17.0416 19.1535 17.5474 18.6012 18.1005L18.5982 18.1027C18.0461 18.6549 17.5409 19.2521 17.0878 19.8881L22.8669 25.6667H14.6949C14.6949 25.6667 14.5 27.2016 14.5 27.9952V28.0048C14.5 28.7984 14.5673 29.5762 14.6949 30.3333H22.867L17.0879 36.1119C17.997 37.3877 19.1123 38.503 20.3881 39.4121L26.1667 33.633V41.8055C26.9344 41.9342 27.7114 41.9992 28.4898 42H28.5096C29.288 41.9993 30.0651 41.9343 30.8328 41.8055V33.633L36.6119 39.4121C37.2485 38.9586 37.8463 38.453 38.3992 37.9005L38.4005 37.8992C38.9528 37.3462 39.4582 36.7484 39.9116 36.1119L34.1326 30.3333H42.3055C42.4327 29.5775 42.4991 28.802 42.5 28.0102V27.9898C42.4991 27.198 42.4327 26.4225 42.3055 25.6667Z" fill="#FF4A00"/>
</g>
<defs>
<clipPath id="clip0_2626_1239">
<rect width="28" height="28" fill="white" transform="translate(14.5 14)"/>
</clipPath>
</defs>
</svg>
