<svg width="57" height="56" viewBox="0 0 57 56" fill="none" xmlns="http://www.w3.org/2000/svg">
<rect width="56" height="56" transform="translate(0.5)" fill="white"/>
<path d="M22.843 32.5094C22.8585 32.5281 22.8679 32.5511 22.8701 32.5753C22.8723 32.5994 22.867 32.6237 22.8551 32.6449C22.7973 32.7388 22.7143 32.8147 22.6156 32.864C22.5169 32.9133 22.4064 32.9341 22.2965 32.924C22.1007 32.9029 21.9202 32.8082 21.7915 32.6592C21.6628 32.5101 21.5955 32.3177 21.6031 32.121C21.5998 31.8528 21.6488 31.5865 21.7473 31.3371C21.8095 31.1808 21.816 31.0078 21.7657 30.8473C21.7154 30.6868 21.6114 30.5485 21.4711 30.4556C21.3881 30.4007 21.2949 30.3629 21.1971 30.3446C21.0993 30.3263 20.9988 30.3278 20.9015 30.3489C20.8062 30.369 20.7159 30.4079 20.6359 30.4633C20.5558 30.5188 20.4877 30.5897 20.4355 30.6719C20.3616 30.7984 20.3042 30.9337 20.2646 31.0748C20.2569 31.0996 20.2508 31.1191 20.2461 31.1317C20.1812 31.3067 20.0777 31.3578 20.0076 31.3484C19.9745 31.3438 19.9289 31.3216 19.8997 31.2415C19.863 31.0099 19.8797 30.7729 19.9483 30.5487C20.017 30.3245 20.1359 30.1188 20.296 29.9475C20.4305 29.8031 20.5974 29.6928 20.7829 29.6257C20.9684 29.5586 21.1673 29.5366 21.363 29.5616C21.5703 29.5901 21.7673 29.6696 21.9364 29.7929C22.1054 29.9162 22.2413 30.0796 22.3318 30.2683C22.4234 30.5002 22.4603 30.7501 22.4398 30.9986C22.4193 31.2472 22.3418 31.4876 22.2133 31.7014C22.1971 31.7377 22.1822 31.7711 22.1696 31.8012C22.1235 31.8847 22.0981 31.9781 22.0957 32.0735C22.0933 32.1689 22.114 32.2634 22.1559 32.3491C22.1914 32.4002 22.239 32.4417 22.2945 32.4699C22.3499 32.4981 22.4115 32.5121 22.4737 32.5106C22.5323 32.5098 22.5906 32.5016 22.6471 32.4861C22.7208 32.4689 22.7968 32.4512 22.843 32.5093L22.843 32.5094ZM40.9896 32.9624C40.9485 33.8074 40.7699 34.6401 40.461 35.4276C38.92 39.1317 35.2423 41.1937 30.8612 41.0632C26.7769 40.9415 23.2935 38.7797 21.769 35.2558C20.8065 35.2289 19.8858 34.857 19.1746 34.208C18.4399 33.5817 17.9679 32.7018 17.8524 31.7433C17.7778 31.0839 17.8594 30.4161 18.0904 29.794L17.2342 29.0665C13.3166 25.7485 25.57 12.0871 29.4891 15.5159C29.5089 15.5332 30.8223 16.8258 30.8256 16.829C30.8308 16.8264 31.5502 16.5203 31.5539 16.5189C34.9913 15.0911 37.7806 15.7805 37.7841 18.0585C37.7859 19.2432 37.0333 20.6241 35.8277 21.8776C36.3096 22.368 36.6507 22.9789 36.8154 23.6463C36.9484 24.112 37.0202 24.5929 37.0292 25.0771C37.0501 25.5599 37.0733 26.6846 37.0756 26.7046C37.1062 26.7139 37.4542 26.8097 37.5597 26.8394C38.261 26.9932 38.9136 27.3175 39.4599 27.7835C39.7482 28.0654 39.9371 28.4335 39.9979 28.8321C40.0722 29.3494 39.9432 29.8753 39.6378 30.2994C39.7172 30.4806 39.7862 30.6663 39.8443 30.8554C39.9457 31.1817 40.0196 31.4524 40.0309 31.4926C40.4039 31.4926 40.9896 31.9232 40.9896 32.9624L40.9896 32.9624ZM23.6765 30.9299C23.4101 29.2002 22.2436 28.5907 21.4521 28.5472C21.2534 28.5366 21.0542 28.5508 20.859 28.5895C19.4463 28.8754 18.6484 30.0808 18.8054 31.647C18.9198 32.3496 19.2677 32.9931 19.7929 33.4735C20.3182 33.9539 20.9901 34.2432 21.7 34.2946C21.8359 34.2982 21.9718 34.2887 22.1058 34.266C23.5376 34.0211 23.9125 32.4616 23.6765 30.9299ZM26.0911 19.9502C27.2878 18.9664 28.5644 18.0839 29.9075 17.312C29.9075 17.312 28.841 16.0717 28.519 15.9802C26.538 15.4431 22.2588 18.4033 19.5266 22.3141C18.4211 23.8965 16.8385 26.6988 17.5952 28.14C17.864 28.4634 18.1672 28.7567 18.4995 29.0145C19.0054 28.3015 19.7687 27.813 20.6281 27.6525C21.7033 24.63 23.5941 21.9642 26.0911 19.9502ZM30.3965 33.6375C30.449 33.8674 30.5626 34.0788 30.7254 34.2494C30.8881 34.4201 31.0939 34.5436 31.321 34.6069C31.5573 34.695 31.8011 34.7614 32.0493 34.8053C35.1828 35.3459 38.1123 33.5489 38.7719 33.0962C38.8214 33.0623 38.8541 33.0954 38.8143 33.1554C38.7945 33.1873 38.7729 33.2181 38.7498 33.2478C37.9425 34.2922 35.7724 35.5016 32.949 35.5012C31.7176 35.501 30.4869 35.0658 30.035 34.3972C29.3339 33.3597 30.0002 31.8455 31.1684 32.0033C31.1698 32.0035 31.5682 32.0488 31.6801 32.0612C33.4961 32.2358 35.3265 31.942 36.9966 31.2079C38.5904 30.4657 39.1925 29.649 39.1022 28.9879C39.072 28.7826 38.9755 28.5928 38.8274 28.4474C38.3915 28.0886 37.874 27.8427 37.3205 27.7315C37.0674 27.6602 36.8956 27.6147 36.7106 27.5535C36.3816 27.4448 36.219 27.3574 36.1821 26.7368C36.166 26.4654 36.1189 25.52 36.1018 25.1293C36.0717 24.4447 35.9897 23.509 35.4108 23.1226C35.2634 23.0256 35.0923 22.9708 34.916 22.964C34.8171 22.958 34.7179 22.9677 34.6221 22.9929C34.3289 23.0607 34.0616 23.2123 33.8528 23.4291C33.5823 23.6736 33.2641 23.8596 32.9183 23.9754C32.5725 24.0912 32.2065 24.1343 31.8432 24.1019C31.4382 24.085 31.0089 24.0217 30.5169 23.9924C30.4212 23.9867 30.325 23.9808 30.2291 23.9759C29.5956 23.9925 28.9891 24.2361 28.52 24.6623C28.051 25.0885 27.7505 25.669 27.6735 26.298C27.3918 28.2422 28.7955 29.2469 29.2007 29.8364C29.2633 29.9115 29.3022 30.0036 29.3123 30.1008C29.3016 30.2086 29.2499 30.3083 29.168 30.3792V30.3799C28.6075 31.0043 28.2135 31.7601 28.0226 32.5773C27.8316 33.3944 27.8499 34.2465 28.0757 35.0547C28.1292 35.2488 28.1979 35.4384 28.281 35.6218C29.3053 38.0226 32.4826 39.1405 35.5868 38.1236C35.9932 37.9905 36.3877 37.8234 36.7661 37.6241C37.4459 37.2871 38.058 36.8282 38.5721 36.2703C39.3716 35.4668 39.8976 34.4319 40.0756 33.3125C40.1691 32.6937 40.0323 32.4544 39.8458 32.3392C39.7139 32.2657 39.5615 32.2378 39.4121 32.2597C39.3331 31.7738 39.1944 31.2994 38.9992 30.8474C38.1127 31.5164 37.1105 32.0163 36.0428 32.3223C34.7582 32.6852 33.4219 32.8302 32.0894 32.751C31.2321 32.6816 30.665 32.4305 30.4517 33.1259C31.7484 33.5595 33.1252 33.7 34.4828 33.5372C34.4923 33.5362 34.502 33.5371 34.5112 33.5399C34.5204 33.5426 34.5289 33.5472 34.5364 33.5533C34.5438 33.5594 34.55 33.5668 34.5545 33.5753C34.559 33.5838 34.5618 33.5931 34.5628 33.6026C34.5642 33.6187 34.5606 33.6348 34.5525 33.6487C34.5444 33.6626 34.5322 33.6737 34.5175 33.6804C34.5175 33.6804 32.9253 34.4219 30.3965 33.6375ZM25.7333 22.3631C26.7864 21.6238 27.9739 21.0973 29.229 20.8134C30.6448 20.4853 32.1165 20.4813 33.5341 20.8017C33.5837 20.8131 33.6153 20.7269 33.5709 20.702C32.8353 20.319 32.0233 20.1055 31.1944 20.0772C31.1864 20.0771 31.1786 20.0747 31.1719 20.0704C31.1651 20.0662 31.1597 20.0601 31.1562 20.0529C31.1527 20.0457 31.1512 20.0377 31.152 20.0298C31.1527 20.0218 31.1556 20.0142 31.1604 20.0078C31.2892 19.8388 31.4396 19.6875 31.6077 19.5577C31.6153 19.5518 31.6207 19.5437 31.6233 19.5345C31.6259 19.5253 31.6255 19.5155 31.6222 19.5065C31.6188 19.4976 31.6127 19.4899 31.6047 19.4847C31.5967 19.4795 31.5872 19.4769 31.5777 19.4774C30.5626 19.5778 29.5872 19.9232 28.7352 20.484C28.728 20.489 28.7194 20.4916 28.7106 20.4916C28.7018 20.4916 28.6932 20.4889 28.6859 20.4839C28.6787 20.479 28.6731 20.4719 28.6699 20.4637C28.6667 20.4555 28.666 20.4466 28.668 20.438C28.7366 20.1808 28.8377 19.9334 28.9687 19.7018C28.9731 19.6938 28.9748 19.6847 28.9735 19.6758C28.9723 19.6668 28.9683 19.6585 28.962 19.652C28.9557 19.6455 28.9475 19.6412 28.9385 19.6398C28.9296 19.6383 28.9205 19.6398 28.9124 19.6439C27.6803 20.324 26.5829 21.2236 25.6743 22.2983C25.6672 22.3064 25.6633 22.3169 25.6634 22.3277C25.6635 22.3386 25.6676 22.349 25.6749 22.357C25.6822 22.365 25.6921 22.37 25.7029 22.3712C25.7137 22.3723 25.7245 22.3694 25.7333 22.3631ZM33.9849 28.9627C34.0707 29.017 34.1734 29.0378 34.2736 29.0212C34.3737 29.0046 34.4642 28.9516 34.5278 28.8725C34.6068 28.7195 34.4921 28.512 34.2714 28.409C34.1856 28.3547 34.0828 28.3339 33.9827 28.3506C33.8825 28.3673 33.792 28.4202 33.7285 28.4994C33.6493 28.6523 33.7642 28.8598 33.9849 28.9627ZM34.6619 26.482C34.7148 26.7575 34.8291 27.0174 34.9961 27.2427C35.1687 27.2215 35.3433 27.2215 35.5159 27.2427C35.6168 26.9404 35.6257 26.6149 35.5413 26.3075C35.4166 25.7404 35.2477 25.3972 34.8989 25.4506C34.5501 25.504 34.5372 25.9149 34.6619 26.482ZM35.404 27.7848C35.3161 27.7595 35.2224 27.7625 35.1362 27.7932C35.0499 27.8239 34.9755 27.8809 34.9234 27.9561C34.8712 28.0313 34.8439 28.121 34.8453 28.2125C34.8467 28.304 34.8768 28.3928 34.9313 28.4664C34.9857 28.5399 35.0619 28.5946 35.149 28.6226C35.2361 28.6507 35.3299 28.6507 35.417 28.6228C35.5042 28.5948 35.5804 28.5402 35.6349 28.4667C35.6895 28.3932 35.7196 28.3045 35.7211 28.213C35.7338 28.1145 35.7078 28.0149 35.6487 27.9351C35.5896 27.8553 35.5019 27.8014 35.404 27.7848Z" fill="black"/>
<path d="M29.6124 27.7342C29.5567 27.7264 29.533 27.7025 29.526 27.671C29.5044 27.5732 29.6549 27.4122 29.8135 27.2959C30.045 27.1267 30.3161 27.0198 30.6008 26.9857C30.8855 26.9515 31.1742 26.9911 31.4392 27.1008C31.6868 27.2029 31.8996 27.3742 32.0523 27.5943C32.109 27.6868 32.12 27.7585 32.0833 27.7961C32.0262 27.8564 31.8806 27.7873 31.6434 27.6833C31.3586 27.5436 31.0438 27.4758 30.7266 27.4859C30.3508 27.5477 29.9788 27.6306 29.6124 27.7342ZM31.9759 28.2208C31.8734 28.1131 31.7459 28.0324 31.6046 27.9861C31.4633 27.9398 31.3128 27.9293 31.1664 27.9554C30.9506 27.9784 30.7461 28.0636 30.5779 28.2007C30.4995 28.257 30.4456 28.3411 30.4273 28.4359C30.4269 28.4464 30.4288 28.4569 30.4329 28.4666C30.437 28.4764 30.4431 28.4851 30.4509 28.4922C30.4649 28.5048 30.483 28.5117 30.5018 28.5115C30.5794 28.5001 30.6553 28.479 30.7278 28.4488C31.0448 28.3294 31.3873 28.2938 31.7221 28.3456C31.8773 28.363 31.9506 28.3727 31.9847 28.3195C31.9934 28.3041 31.9972 28.2864 31.9957 28.2687C31.9941 28.2511 31.9872 28.2344 31.9759 28.2208Z" fill="black"/>
</svg>
