<svg width="57" height="56" viewBox="0 0 57 56" fill="none" xmlns="http://www.w3.org/2000/svg">
<rect width="56" height="56" transform="translate(0.5)" fill="white"/>
<path d="M36.2313 22.8628V19.2991C36.7029 19.0788 37.1023 18.729 37.3828 18.2905C37.6633 17.852 37.8134 17.3428 37.8157 16.8222V16.7389C37.8138 16.0113 37.524 15.3142 37.0096 14.7997C36.4953 14.2853 35.7982 13.9954 35.0708 13.9935H34.9875C34.2601 13.9954 33.5631 14.2853 33.0487 14.7997C32.5344 15.3142 32.2445 16.0113 32.2426 16.7389V16.8222C32.2449 17.3428 32.395 17.852 32.6755 18.2905C32.9561 18.729 33.3554 19.0788 33.827 19.2991V22.8702C32.4711 23.0775 31.194 23.6395 30.1251 24.4993L20.3263 16.8666C20.5128 16.1681 20.4516 15.4266 20.153 14.7682C19.8544 14.1098 19.337 13.5753 18.6887 13.2555C18.0404 12.9357 17.3014 12.8505 16.5974 13.0143C15.8934 13.1782 15.2679 13.581 14.8274 14.1541C14.3868 14.7273 14.1585 15.4354 14.1812 16.158C14.204 16.8806 14.4763 17.573 14.952 18.1173C15.4277 18.6617 16.0772 19.0244 16.7901 19.1436C17.5031 19.2629 18.2353 19.1314 18.8622 18.7715L28.4963 26.2727C27.6285 27.5821 27.1758 29.1228 27.1973 30.6936C27.2187 32.2643 27.7134 33.7921 28.6166 35.0772L25.6847 38.0096C25.4494 37.9346 25.2043 37.8947 24.9573 37.8911C24.4539 37.8911 23.9619 38.0404 23.5434 38.3201C23.1248 38.5998 22.7986 38.9974 22.606 39.4625C22.4134 39.9276 22.363 40.4394 22.4612 40.9332C22.5594 41.4269 22.8018 41.8805 23.1577 42.2365C23.5136 42.5925 23.9671 42.8349 24.4608 42.9331C24.9545 43.0313 25.4662 42.9809 25.9312 42.7883C26.3963 42.5956 26.7938 42.2694 27.0734 41.8508C27.3531 41.4322 27.5023 40.94 27.5023 40.4366C27.4989 40.1896 27.4589 39.9444 27.3839 39.709L30.2843 36.8082C31.2311 37.5315 32.3306 38.0288 33.4989 38.2623C34.6671 38.4958 35.8733 38.4592 37.0253 38.1554C38.1773 37.8515 39.2447 37.2885 40.1459 36.5091C41.0471 35.7298 41.7584 34.7548 42.2255 33.6586C42.6925 32.5624 42.903 31.374 42.8407 30.184C42.7785 28.9941 42.4453 27.8341 41.8665 26.7926C41.2877 25.7511 40.4786 24.8556 39.501 24.1745C38.5234 23.4934 37.4032 23.0448 36.2258 22.8628H36.2313ZM35.0245 34.6033C34.2312 34.6015 33.4562 34.3645 32.7975 33.9223C32.1387 33.4801 31.6258 32.8525 31.3236 32.1189C31.0213 31.3853 30.9433 30.5785 31.0993 29.8005C31.2554 29.0225 31.6385 28.3083 32.2002 27.748C32.762 27.1877 33.4772 26.8065 34.2555 26.6526C35.0337 26.4987 35.8402 26.579 36.5728 26.8833C37.3055 27.1876 37.9316 27.7023 38.3719 28.3624C38.8122 29.0224 39.047 29.7982 39.0466 30.5917C39.0466 31.6561 38.6238 32.677 37.8713 33.4297C37.1187 34.1823 36.0981 34.6052 35.0338 34.6052" fill="#FF7A59"/>
</svg>
