<svg width="57" height="56" viewBox="0 0 57 56" fill="none" xmlns="http://www.w3.org/2000/svg">
<rect width="56" height="56" transform="translate(0.5)" fill="white"/>
<g clip-path="url(#clip0_2626_1219)">
<path d="M24.7209 14.0691C23.1814 14.0691 21.9335 15.3198 21.9335 16.8621C21.9332 17.2285 22.005 17.5914 22.1449 17.9301C22.2847 18.2687 22.4899 18.5765 22.7488 18.8359C23.0076 19.0952 23.315 19.3011 23.6534 19.4416C23.9918 19.5822 24.3545 19.6547 24.7209 19.6551H27.5088V16.8621C27.5094 16.122 27.2161 15.412 26.6932 14.8883C26.1704 14.3645 25.461 14.0698 24.7209 14.0691ZM24.7209 21.5171H17.2874C15.7479 21.5171 14.5 22.7678 14.5 24.3106C14.5 25.8529 15.7479 27.1036 17.2874 27.1036H24.7214C26.2605 27.1036 27.5088 25.8529 27.5088 24.3106C27.5088 22.7678 26.2605 21.5171 24.7209 21.5171Z" fill="#36C5F0"/>
<path d="M42.376 24.3106C42.376 22.7678 41.1277 21.5171 39.5881 21.5171C38.0486 21.5171 36.8007 22.7678 36.8007 24.3106V27.1036H39.5881C40.3282 27.1028 41.0376 26.8081 41.5604 26.2844C42.0832 25.7606 42.3766 25.0506 42.376 24.3106ZM34.9425 24.3106V16.8621C34.9431 16.122 34.6497 15.412 34.1269 14.8883C33.6041 14.3645 32.8946 14.0698 32.1546 14.0691C30.6151 14.0691 29.3672 15.3198 29.3672 16.8621V24.3101C29.3672 25.8534 30.6151 27.104 32.1546 27.104C32.8946 27.1033 33.6041 26.8086 34.1269 26.2848C34.6497 25.7611 34.9431 25.0511 34.9425 24.311" fill="#2EB67D"/>
<path d="M32.1546 42C32.8946 41.9993 33.6041 41.7046 34.1269 41.1809C34.6497 40.6571 34.9431 39.9471 34.9425 39.207C34.9431 38.467 34.6497 37.757 34.1269 37.2332C33.6041 36.7094 32.8946 36.4148 32.1546 36.414H29.3672V39.207C29.3672 40.7494 30.6151 42 32.1546 42ZM32.1546 34.552H39.5886C41.1277 34.552 42.376 33.3014 42.376 31.7586C42.3766 31.0185 42.0832 30.3085 41.5604 29.7848C41.0376 29.261 40.3282 28.9663 39.5881 28.9656H32.1546C30.6151 28.9656 29.3672 30.2162 29.3672 31.7586C29.3668 32.125 29.4386 32.4879 29.5785 32.8266C29.7184 33.1652 29.9236 33.473 30.1824 33.7324C30.4413 33.9917 30.7487 34.1976 31.087 34.3381C31.4254 34.4787 31.7882 34.5512 32.1546 34.5516" fill="#ECB22E"/>
<path d="M14.5 31.7586C14.4996 32.125 14.5714 32.4879 14.7113 32.8266C14.8512 33.1652 15.0564 33.473 15.3153 33.7324C15.5741 33.9917 15.8815 34.1976 16.2199 34.3381C16.5582 34.4787 16.921 34.5512 17.2874 34.5516C18.0275 34.5508 18.7369 34.2562 19.2597 33.7324C19.7825 33.2086 20.0759 32.4986 20.0753 31.7586V28.9656H17.2874C15.7479 28.9656 14.5 30.2162 14.5 31.7586ZM21.9335 31.7586V39.2066C21.9335 40.7494 23.1814 42 24.7209 42C25.461 41.9993 26.1704 41.7046 26.6932 41.1809C27.2161 40.6571 27.5094 39.9471 27.5088 39.207V31.7586C27.5092 31.3921 27.4373 31.0292 27.2974 30.6905C27.1575 30.3518 26.9523 30.044 26.6934 29.7846C26.4345 29.5253 26.1271 29.3194 25.7886 29.1789C25.4502 29.0384 25.0874 28.9659 24.7209 28.9656C23.1814 28.9656 21.9335 30.2162 21.9335 31.7586Z" fill="#E01E5A"/>
</g>
<defs>
<clipPath id="clip0_2626_1219">
<rect width="28" height="28" fill="white" transform="translate(14.5 14)"/>
</clipPath>
</defs>
</svg>
